<?xml version="1.0" encoding="UTF-8"?>
<svg width="48" height="48" viewBox="0 0 48 48" fill="none" xmlns="http://www.w3.org/2000/svg">
    <rect width="48" height="48" rx="12" fill="#2C4B47" fill-opacity="0.1"/>
    <path d="M32 14H16C14.9 14 14 14.9 14 16V32C14 33.1 14.9 34 16 34H32C33.1 34 34 33.1 34 32V16C34 14.9 33.1 14 32 14ZM31 31H17C16.45 31 16 30.55 16 30V18C16 17.45 16.45 17 17 17H31C31.55 17 32 17.45 32 18V30C32 30.55 31.55 31 31 31Z" fill="#2C4B47"/>
    <path d="M24 19L20 24H23V29L27 24H24V19Z" fill="#2C4B47"/>
</svg> 